<?xml version="1.0" encoding="UTF-8"?>
<svg id="a" data-name="Layer 1" xmlns="http://www.w3.org/2000/svg" viewBox="0 0 768 768">
  <path d="M427.2,298.24c.96,3.03,1.12,6.18.93,9.36-.12,1.93-.9,3.63-.94,5.26-.19,6.45.31,12.93-.14,19.38l-20.23,20.75-.91,2.91,2.96-.14c5.94-5.9,11.88-11.78,17.8-17.64,7.88-7.81,16.48-15.62,24.08-23.89,1.36-1.48,7.44-8.32,7.55-9.34.31-2.9-2.03-2.86-3.62-4.4-8.28-7.98-16.53-16-24.8-24-3.94-3.82-14.54-9.98-11.97-16.37.59-1.46,9.92-13.2,11.06-13.77,1.7-.85,4.29-.83,5.82.4,10.73,12.01,21.16,24.44,33.67,34.64.93.06,1.19-1.26.61-2.37-.93-1.78-3.82-3.33-4.98-5.67-4.12-8.27-1.6-16.51,6.66-20.71,5.57-2.83,11.63-3.69,17.49-1.67,10.03,3.44,15.49,13.05,8.56,22.4-1.54,2.08-3.75,3.2-5.7,5.83-.87,1.18-.84,1.99.43,2.2,2.15.35,28.54-26.02,33.89-27.39,2.05-.37,5.76,2.43,7.37,3.86,2.12,1.87,12.71,14.88,12.32,16.76-.14.67-1.12,1.46-1.74,1.84-13.48,5.2-26.1,12.26-39,18.66-.84.83-2.11,6.57-2.43,8.22-.45,2.36-1.54,9.3-.95,11.16.73,2.3,3.78,4.03,5.18,5.43,8.26,8.3,16.42,16.74,24.81,24.91,2.08,2.02,5.28,2.87,6.06,6.36.46,2.06.47,17.04-.22,18.07-.8,1.19-9.71,1.2-11.43.68-3.47-1.04-13.41-15.41-15.25-15.81-1.79-.06-2.4,1.6-2.28,3.1,1.53,7.16,1.58,14.97,2.81,22.11.45,2.63.88,6.25,3.92,6.73,4.8.75,11.04.3,15.76,1.1,1.27.21,3.72.87,4.1,2.11l.21,64.56c4.47,3.48,10.58,3.27,12.74,9.42,1.33,3.77,1.46,7.73-1.73,10.67-3.75,3.46-6.64,2.01-11.12,1.75-1.14,4.8,3.83,4.86,6.23,7.51,1.71,1.88,3.69,7.23,3.59,9.78-.11,2.77-2.06,4.24-2.55,6.39-1.23,5.41,3.52,8.07,5.8,12.48,2.93,5.68,4.34,12.94,6.9,18.83,7.07,5.2,15.42,7.29,22.55,12.94,3.25,2.58,9.97,11.13,12.48,12.36,1.18.58,2.3.49,3.55.44.25-.21-3.64-6.3-.46-5.31,3.99,1.24,9.53,6.01,14.07,7.22,6.6,5.48,16.67,11.91,11.41,21.79-.89,1.68-3.96,3.85-3.69,5.04,2.89,4.42,11.47,7.3,10.64,13.38-.57,4.17-6.66,5.34-9.76,2.66-1.94-1.68-4.58-8.07-8.04-6.22-4.85,2.6-2.22,15.73-3.95,19.13-1.02,1.99-9.24,3.65-11.78,4.19-17.73,3.74-42.97,5.74-61,4.69-4.06-.24-9.23-1.54-13.29-1.83-6.68-.47-7.63,4.61-11.95,8.49-16.66,14.93-47.5,28.83-69.01,34.8-60.52,16.79-124.53,5.52-176.16-29.22-17.32-11.65-26.31-30.73-29.81-50.92-.46-2.65.69-7.8-3.17-8.36-2.43-.36-5.11.25-7.8-.18-13.86-2.24-31.6-17.78-35.02-31.52-3.43-13.77-.05-26.14,6.72-38.1,6.36-11.24,16.05-22.5,21.66-34.23,2.21-4.61,2.24-12.05,4.67-17.51,2.43-5.48,8.1-10.59,9.13-16.6,1.88-10.93-.14-28.75.16-40.66.28-10.99,1.22-21.81,1.83-32.76.27-4.89-2.1-11.3-.43-15.52.88-2.23,7.64-10.05,9.72-11.57,2.85-2.09,7.4-3.74,10.56-1.66,2.43,1.6,2.57,8.22,7.05,7.73,3.22-.35,4.31-4.38,5.93-6.3,6.33-7.51,18.2-5.12,26.91-7.68,2.47-1.5,1.3-15.56,1.44-19.15.06-1.51.86-2.89.92-4.4.24-5.77-.54-11.64.37-17.37l1.05-.73c5.91.05,11.88-2.23,17.71-2.7,4.38-.35,8.95.26,13.27-.04,1.6-.11,2.88.26,3.95-1.37.41-2.19-1.57-1.11-3.01-1.4-11.22-2.29-22.17.43-33.36.97.18-7.99-.6-16.06.91-23.94,4.54.28,9.32-1.49,13.71-1.81,11.42-.84,22.99.46,34.23,2.18.64.42.75,1.11.84,1.82.79,5.72.18,16.04.03,22.23-.13,5.45-1.49,10.89-.95,16.84.47,5.27,3.65,5.25,8.48,4.88,6.74-.52,2.56-3.57,4.36-6.29.6-.91,1.71-.8,2.67-.87,2.65-.21,12.12-.43,14.13.15,2.3.66.73,4.28,2.27,5.72,1,.69,6.97.62,8.33.23,3.09-.88,1.71-5.34,3.8-5.96,1.57-.46,11.23-.4,13.22-.12,3.29.46,1.36,4.49,3.96,5.8,4.84,2.43,9.39-.25,8.89-5.78h17.74ZM320.73,274.29c-.74-3.92,2.79-14.12-3.59-10.09.43,2.26-.85,8.5.89,9.69l2.69.41ZM296.78,274.29c5.11,1.07,5.04-3.51,4.45-7.56-.44-3-2.25-2.09-4.36-1.22l-.09,8.78ZM472.02,266.31c-2.34.62-2.11,6.66,2.58,5.26,3.09-.92.52-6.08-2.58-5.26ZM489.26,271.58c1.6-1.73.14-5.7-2.08-5.23-1.13.24-2.67,2.55-2.31,3.94s3.9,1.81,4.38,1.29ZM489.31,274.29c-6.26.65-8.89,1.29-15.04-.51-1.19-.35-1.91.73-1.81,1.83,5.04,4.48,13.87,5.62,16.86-1.32ZM318.52,291.15c-1.97.56-2.77,11.04,1.76,9.75,1.97-.56,2.77-11.04-1.76-9.75ZM297.67,304.45c5.14.55,5.7-8,2.22-10.61l-2.26,1.4.04,9.2ZM488.42,314.21c.58-6.61,1.09-12.33-.11-18.96l-1.22-1.44h-14.2c-.3,0-3.11,1.98-3.11,2.22v16.86l1.33,1.33h17.3ZM401.43,334.6c.76-2,.82-7.44,3.16-7.96,2.66-.58,2.81,5.74,4.43,6.2,4.07,1.15,2.08-10.74-3.55-10.72s-8.89,7.76-6.62,12.46h2.57ZM387.01,326.91c-6.02-6.01-16.68-3.04-18.37,5.48l2.22,1.34c2.79-4.79,7.34-8.94,12.85-4.86,1.98,1.46,2.38,5,5.34,4.86.35-2.38-.34-5.12-2.04-6.82ZM354.18,330.45c.7.68,2.45,4.14,3.38,4.15,3.67.04-.86-8.9-6.24-9.71-5.74-.87-12.28,2.42-11.94,8.83,3.8.92,3.92-4.3,6.8-5.16,2.65-.79,6.03-.02,8,1.89ZM308.76,415.36c-4.17-.59-10.58,0-15.08,0-.19,0-1.63-1.53-1.33-1.77,4.57.15,9.2-.22,13.77-.02,7.9.35,12.47,4.66,11-7.45s-5.37-25.74-6.95-38.29c-1.5-11.9.92-17.04-7.6-27.01-2.41-2.82-4.93-5.42-8.89-5.38-4.35.04-19.72,2.44-23.71,3.86-5.49,1.96-9.05,7.58-8.71,13.51.69,12.06,4.72,25.08,5.38,37.25.37,6.86-1.46,19.69,1.38,25.24,3.16,6.17,5.75,4.97,11.02,1.84.46,2.33-.5,1.52-1.75,2.19-4.01,2.15-7.36,3.85-7.95,8.96-.96,8.27,6.97,3.78,12,3.12,9.73-1.29,21.34-3.12,30.96-3.64,3.15-.17,9.85,1.29,11.45.82,2.14-.63,1.79-4.3.61-5.74s-6.42-4.18-8.33-4.98c-1.62-.68-5.8-2.29-7.26-2.5ZM243.65,360.23c.1.15,2.89,1.38,3.47.6,1.6-1.19-.13-6.11,4.15-8.28,1.84-.94,5.35-.51,5.64-3.28.39-3.85-3.78-3.06-6.21-4.49-1.46-.85-4.07-4.61-4.96-4.81-3.85-.87-3.26,11.33-3.08,13.74.07.91.82,6.25,1.01,6.52ZM240.89,343.49c-7.98.75-6.61,10.13-5.33,15.97-3.02-.7-.76-6.61-3.11-7.09-3.29-.68-2.34,9.79-2.01,11.78,1.13,6.76,5.68,8.54,6.02.64.32-.4,4.11,2.41,5.8-.89,1.18-2.31-1.37-5.26-1.37-6.64v-13.75ZM332.95,349.9c-3.54-3.51-11.98-.15-15.99,1.79-10.01,4.86-4.88,10.44-3.54,18.19,2.32,13.41,3.55,30.98,7.74,43.72,1.49,4.54,5.15,9.7,7.05,14.25l12.04,2.19c2.44-1.23,1.97-6.39,1.8-8.93-.4-5.73-1.82-13.6-2.66-19.52-.96-6.73-4.59-12.03-5.31-16.87s-.64-13.86-.93-19.47c-.19-3.73,1.83-13.35-.19-15.35ZM448.49,483.67c-1.29-.56-2.82-.39-3.4-2.37-1.75-5.98,1.94-9.78,7.59-10.74,4.21-.71,9.08,1.34,11.77-2.42-7.12-5.22-15.22-9.06-22.64-13.73-4.31-2.71-8.28-5.95-12.56-8.73-4.21-2.74-8.89-3.06-9.22-9.48-.2-3.8,1.38-4.82,4.93-4.94,6.76-.22,10.73,5.47,16.38,7.65,1.42.55,3.39.09,4.5.82,1.35.88.8,3.64,3.98,3.14.67-.11-.04-2.76,2.2-1.79,1.3,9.4,9.64,10.42,17.06,13.56,2.04.86,6.78,3.96,8.26,4.2,4.52.73,13.01-5.23,17.55-7.27,2.72-1.22,6.36-.87,6.65-4.02.35-3.76-7.73-19.45-10.49-22.87-3-3.72-7.33-7.31-12.41-6.67l5.75-3.56c.7-.01.46,3.74,4.39,2.62,1.41-.64,1.32-1.7,1.43-3,1.21-14.39-12.83-46.42-22.22-57.71-8.42-10.11-17.58-8.97-27.78-2.07-1.17.79-7.41,5.83-7.63,6.62-.66,2.31,2.3,3.37,3.29,5.39,1.03,2.1,2.1,8.02,2.62,10.69,1.83,9.34,2.5,19.05,4.44,28.39l-.65,2.87-5.34-24.84c-2.83-.48-3.68.96-3.55,3.55h-.45c-4.04-1.21-10.87-2.67-9.16-8.28.62-2.05,5.02-3.52,3.42-7.69,2.16,1.47,3.12,3.34,6.2,2.66.95-7.21-5.76-10.13-11.96-10.65-3.93-.33-10.67.26-12.69,4.19-1.38,2.68-.72,5.52-1.52,8.24-3.43-1.91.56-11.51-.44-12.42-6.31-.69-11.68,1.26-16.4,5.33-1.44,1.24-5.54,5.26-6.69,6.63-2.08,2.47-3.45,6.21-2.25,9.39,2.67,3.57,8.89,11.13,12.68,13.07,3.46,1.77,4.32-.9,5.86-.57,1.66.35,3.18,3.95,5.91,1.21.4-.4,1.77-3.3,1.77-3.56v-12.86l2.44,8.64c1.87,10.6-5.09,17.21-15.19,11.64-2.36-1.3-4.4-4.75-7.66-4.31-.77,4.47,2.53,7.68,3.99,11.53,9.17,24.26-8.83,50.91-10.22,74.95-.44,7.6-.31,13.76,4.45,19.97l-4.89-4.43-2.2,1.33c3.46,2.54.41,3.28-.49,5.73-.96,2.6-2.11,9.18-.17,11.35,4.61,3.1,9.92,7.8,12.57,12.7,1.02,1.88,3.4,11.15,6.2,10.56l2.72-3.51c11.78,6.41,22.58,16.71,29.19,28.48,3.69,6.57,6.43,17.39,11.46,22.7,1.01,1.07,2.94,1.62,4.18,3.36.81,1.13,2.26,5.28,2.79,5.64.88.6,3.42-.32,5.2.57,1.88.94,1.95,4.02,3.23,4.95,1.46,1.06,12.38,5.84,14.06,6.15,5.08.92,4.15-2.01,4.96-2.55,2.96-1.99,3.8,3.76,4.9,4.4.93.55,9.42,2.67,10.48,2.6,2.64-.18,6.8-4.03,9.06-4.28,1.85-.21,4.52,2.46,6.31,3.15s8.52,1.9,9.82.97c.49-.35,1.28-3.95,3.24-3.4,2.21,2.56,3.28,5.84,7.06,6.26,4.78.53,8.69.45,11.67-3.56,1.58-.35,2.86,2.87,4.5,3.36,1.5.45,8.78.45,10.49.15,2.93-.5,4.34-5.5,9.71-5.31,4.27.16,3.08,3.53,4.61,4.48,2.38,1.48,6.78,1.11,8.79-.91,1.27-1.27,1.96-5.03,3.51-5.37,2.1-.46,2.42,4.24,5.33,4.47,1.34.1,13.27-3.61,14.24-4.42,2.63-2.2,2.93-15.68.85-18.7-1.4-2.03-7.4.5-9.85.82-11.64,1.52-25.7,3.61-37.17,4.53-1.72.14-11.1.53-11.1-1.35,1.11-1.69,2.34-1.23,3.96-1.35,12.11-.9,24.21-.45,36.33-1.82,3.49-.4,7.01-2.4,10.57-2.74,1.56-.4,1.27-2.27,1.99-3.33,2.19-3.22,3.71-3.51,2.85-8.3-2.07-11.5-10.48-23.32-20.5-29.19-8.26-4.84-19.02-6.18-26.27-11.88-7.05-5.55-13.87-14.68-20.45-21.25-2.18-2.18-5.14-4.11-7.58-6.61-2.81-2.89-3.14-6.02-8.16-6.91-3.58-.64-12.43.54-14.87,3.36-1.5,1.73-3.12,8.57-4.54,11.43-4.56,9.23-12.93,17.79-18.48,26.77-1.94,3.13-3.98,11.56-8.49,9.29-5.92-5.72-14.14-12.99-22.62-13.8-4.64-.44-12.12-1.11-8.27,5.64.71,1.24,1.81,1.24,2.21,1.75.98,1.25,4.33,5.45,4.72,6.38.17.4.23,1.46-.44,1.32l-3.99-3.55c.25,3.82,3.1,8.47,6.21,10.65-.2-1.46-.21-2.68-.51-4.35-.27-1.47-1.13-2.84.97-.99l4.7,6.83,3.71,7.38c-.91,1.05-5.98-7.52-6.62-8.05-.91-.76-1.96-.62-2.25-.82.22,1.58.69,2.89.88,4.44-1.05,1.28-7.77-12.26-8.46-13.27-5.58-8.12-20.49-24.61-28.49-30.07-2.93-2-18.18-9.17-18.78-10.05-.51-.74-.01-2.38-.15-3.4.55-.57,12.78,5.41,14.5,6.35,2.85,1.56,6.75,3.86,9.4,5.68,3.68,2.52,8.47,7.98,11.66,9.66.82.43,1.68.58,2.59.49l-1.42,2.59-3.02-.82c-.03,2.55,1.9,4.41,4.09,5.25l1.13-.04c.1-2.16,4.98-3.78,6.95-4.13,5-.88,11.09.67,15.81,2.42s8.86,5.75,13.71,5.36c-1.48,2.84.73,6.12,3.87,5.26,1.79-.49,17.34-27.66,20.42-31.1,3.8-6.36,4.87-14.13,2.25-21.11-1.28-.88-10.43,2.37-11.93,3.44-4.2,2.98-2.7,9.82-9.23,12.06-5.42,1.86-11.03-1.18-10.76-7.14.06-1.27,2.21-6.61,2.93-7.34,2.68-2.71,7.79-1.37,10.71-2.16.41-.11,6.92-3.41,7.67-3.86.73-.43,1.22-1.15,1.81-1.73-2.12-2.02-4.07-4.23-6.19-6.25s-3.52-1.97-4.45-4.84c1.71.93,3.08,1.55,4.87,2.68,1.38.87.83,1.07,2.21-.46-3.31-3.16-4.17-8.88-9.75-7.54-.88,3.27,1.71,2.78,2.51,3.71.44.52.03,1.24.15,1.61-1.57-.86-3.19-1.02-4.45-3.16l-1.14-.24c-9.19,2.65-4.6,12.79-17.08,11.44-1.63-.18-1.2-.9-1.28-.94.99.44,4.4-.19,4.42-1.33-1.51-2.09-3.1-3.91-2.65-6.66l-2.69.42c-2.02,1.06-.08,7.13.92,7.57ZM349.13,368.78v35.04c3.25.39,3.97.12,4.38-3.15,1.17-9.38-.96-20.72.03-30.15.47-4.47,2.52-5.91,5.61-8.42.58-.47.62-1.4.83-1.52.37-.21,6.76-2.06,7.34-2.08,2-.09,5.27.93,6.97,1.97,2.46,1.5,2.82,4.13,5.45,5.2,3.48-4.24-2.82-8.1-6.46-9.52-2.15-.84-8.06-.6-10.39-.22-4.25.69-12.99,8.41-13.76,12.85ZM509.98,449.63c4.55,3.32,6.21-1.06,5.89-5.35-.8-10.73-4.68-19.68-7.89-29.41-4.06-12.29-5.19-27.37-9.34-40.34-2.2-6.86-4.65-12.77-13.12-11.32-4.74.81-6.65,2.21-5.76,7.14.97,5.37,5.57,14.03,7.35,20.15,2.4,8.24,3.66,16.8,6,25.05,3.11,10.92,7.98,21.07,11.71,31.77,1.03,1.44,2.92.57,4.33.85.76.16.55,1.25.84,1.46ZM252.42,370.11c.5-4.74-.59-6.31-5.37-4.92-3.6,1.05-11.3,7.82-14.09,10.74-2.4,2.52-3.38,5.36-3.65,8.77-1,12.85.46,26.33.94,39.06.22,5.76.2,13.8-1.08,19.36-.59,2.57-8.21,14.37-6.92,15.7,1.89.4,2.34-.37,3.57-1.3,6.85-5.23,12.28-10.84,20.08-15.41,4.87-2.85,9.85-4.92,15.29-6.44l.1-4.34c2.33,1.4,2.26,3.15,5.32,1.78.72-.85-2.38-7.64-2.61-9.37-1.97-15.01.7-38.28-4.03-51.86-.18-.53-2.26-4.88-2.43-5.1-.35-.43-3.03-1.43-3.35-1.09-.32,1.84,1.24,5.11-1.77,4.44ZM434.3,382.53c1.13-8.49-7.96-7.95-5.24-.08l5.24.08ZM360.09,481.28c-1.19,2.37-3.9,6.66-3.94,9.05s1.59,4.26,3.67,2.71c.5-.38,5.15-9.73,5.71-11.15,3.47-8.81,5.14-24.28.93-32.86-3.99-8.12-10.56-11.03-18.93-13.01-2.06-.49-11.6-2.35-12.97-1.97-.6.16-1.47.84-.97,1.71,1.46,2.52,12.18,5.18,15.53,6.66,6.68,2.95,13.82,7.81,15.76,15.29,1.96,7.53-.12,15.78-3.36,22.67-.36.76-1.32.68-1.43.9ZM426.87,434.1c-4.2,1.26-1.38,7.63.76,6.99,2.26-1.76,3.48-8.26-.76-6.99ZM323.4,440.2c0-1.19.36-2.38-.89-3.1-2.23-1.29-13.34-2.11-15.13-.94l-.84,4.04c5.9.11,10.9,1.62,16.86,0ZM272.91,444.71c-1.82,7.34,7.86,2.99,10.89.69,2.48-1.88,1.94-4.39-1.23-3.95s-6.54,2.24-9.66,3.26ZM343.81,450.84c1.28-6-5.11-10.66-10.26-8.04l-.39,4.49-16.85-2.66.41,3.58c2.48,1.11,5.14,2.89,7.55,3.98,1.18.54,2.78.52,4.2,1.12,3.94,1.66,8.19,4.42,12.6,5.1,3.41.52,3.32-2.1,1.76-4.39-1.1-1.62-3.14-.75-2.57-3.17h3.56ZM288.55,445.66c-2.93.57-10.48,4.49-9.39,8.14.49,1.66,10.5,9.73,12.77,12.11,1.17,1.23,2.13,3.91,3.68,4.35,2.46.7,5.68-1.61,8.06-2.33,6.55-1.99,13.46-3.63,20.25-4.59,2.74-.39,8.17,1.02,9.16-2.43,1.38-4.82-12.32-7.28-15.68-8.06-6.54-1.52-14.23-2.18-20.65-4.19-3.06-.96-5.08-3.62-8.2-3.01ZM258.63,449.95c-1.57-.12-2.95-.04-4.47.41-1.39.41-7.44,3.6-8.8,4.51-1.44.96-1.57,2.62-1.99,2.89-.66.43-2.21.06-3.36.62-3.87,1.87-12.96,12.21-15.98,15.98-2.2,2.74-10.25,13.41-10.41,16.1,1.07,2.73.15,6.04.83,8.56.17.65,6.84,10.78,7.37,11.28,1.02.95,2.5.66,2.91,1.06.46.45.18,2.95,1.52,3.37,1.14.36,3.98-4.15,5.33-5.31,1.89-1.63,10.25-5.99,12.47-6.23,1.79-.19,5.84,1.3,7.43,2.28,1.47.9,2.55,3.08,4.4,3.52,4.29,1.02,3.83-3.17,4.71-3.83.48-.36,1.64-.22,2.37-.68,2.71-1.72,4.75-3.03,4.54-6.59h.88c.27,4.11,3.96,2.73,6.21,4.88l-1.77,3.99c-3.21-4.72-9.34,2.1-6.24,4.02,3.18,1.23,5.72.52,5.36-3.15.95.31,1.86,1.1,2.94.82.49-.13,6.51-5.12,8.11-6.16,3.21-2.08,6.68-3.01,9.73-6.24,4.05-4.29,3.96-8.58,2.22-14.08-5.84-1.04-9.05,5.85-13.88,6.88-10.16,2.18-11.62-14.97-.97-17.85,2.12-.57,7.23-.15,6.83-2.73-.16-1.06-8.45-10.99-9.26-11.17-2.56-.58-3.89,7.97-5.95,9.51-.24.18-5.19,1.98-5.59,2.01-2.37.18-5.75-1.57-7-3.61-2.25-3.69.41-10.52-.5-15.03ZM493.74,459.71c3.27.19,10.22-.03,8.83-4.84-.68-2.36-3.82-.62-5.2.05-2.03,1-4.24,2.16-3.64,4.79ZM235.56,455.28c-.95-.93-9.46,5.58-10.66,6.63-3.2,2.79-9.8,10.47-11.56,14.16-.69,1.44-1.14,2.34-.83,4.04.83.96,4.24-2.81,4.9-3.53,5.45-5.91,11.06-12.16,16.39-18.21.88-.99,2.13-1.46,1.77-3.1ZM525.68,470.36c.41-11.48-13.76-6.28-3.15-.84,1.08.56,1.74,1.16,3.15.84ZM500.51,466.04c-1.9.56-1.88,2.77,0,3.32,2.53.75,5.03.09,6.54-2.11.14-1.54-5.22-1.6-6.53-1.22ZM515.86,465.98c-4.84-.55-7.56-.05-5.2,5.21,4.03.39,6.99-1.06,5.2-5.21ZM335.81,468.59c1.62,6.76,7.12-.73,3.02-1.72-1.49-.36-2.77.6-4.18.57-3.38-.07-8.69-2.15-8.59,3.81,3.27-.41,8.61,1.66,8.88-2.66h.87ZM505.92,470.52c-1.56.25-8.16,2.75-7.73,4.72.75,3.45,10.12-.97,10.64-2.66.47-1.54-1.43-2.29-2.91-2.06ZM521.05,474.12c-2.29-2.29-5.31.03-7.7.76-2.01,7.67,13.32,4.85,7.7-.76ZM359.77,511.17c-.82-3.54-2.49-7.29-4.07-10.57-2.48-5.13-6.65-13.1-9.75-17.75-2.02-3.03-7.86-3.76-11.47-3.69-3.07.06-5.84,1.57-8.85,1.85-5.16.49-20.84-1.35-23.99,1.74-2.26,2.22-.84,7.82-1.49,10.93-1.88,8.93-11.59,14.57-18,20.15-2.32,2.02-4.33,4.73-6.64,6.67-.83.7-4.57,3.71-5.06,3.86-6.23,1.85-14.09-9.96-18.47-13.2-8.63-6.39-21.11,5.33-19.92,14.59.48,3.73,2.83,8.47,3.43,12.55,1.24,8.48-1.82,25.44,11.88,17.95,19.45-10.64,34.39-24.39,55.62-33.1,6.81-2.8,31.73-11.98,37.7-11.98h19.08ZM351.79,486.33c.22-2.93-.66-6.84-4.43-6.21.18,2.76.68,6.99,4.43,6.21ZM540.76,490.77c.02-1.26.13-2.56-.18-3.81-1.16-4.63-7.05-5.39-5.66-1.45.44,1.25,4.11,7.04,5.84,5.26ZM549.63,528.03c.19-1.25-.12-2.39-.4-3.59-1.42-6.31-12.37-25.82-16.44-31.47-.44-.62-2.12-2.37-2.68-2.65-1.43-.72-11.22-.83-12.46-.04-3.2,2.05,4.5,11.38,6.24,13.39,3.7,4.26,9.7,8.21,13.79,12.81,2.36,2.65,5.67,8.55,7.75,10.43,1.02.92,2.85,1.21,4.2,1.13ZM515.04,499.64c.53-4.44-1.38-8.04-6-8.72-2.07-.3-12.92,2.06-13.46,3.96-.12,1.53,1.76,7.16,3.01,7.26,5.25-2.45,10.72-2.81,16.44-2.5ZM464.46,500.53c-1.17-.24-2.18.33-2.53,1.45-2.45,7.8,8.97,9.17,7.86,5.21-.39-1.41-3.72-1.76-4.25-2.41s-.72-3.19-1.08-4.25ZM214.19,505.04c-3.17-2.06-4.2,4.7-4.37,6.57-.33,3.69-.45,22.16,1.12,24.19.21.27,5.13,3.81,5.46,3.74,3.58-2.08,1.65-6.29,3.21-9.72,2.78-.33,4.9,1.57,6.65,3.52,2.37,2.62,3.43,7.59,7.52,7.11-.24-14.67-14.9-22.36-19.6-35.41ZM228.25,558.39c-.78-.64-3.7-1.35-5.54-2.87-5.73-4.73-17.69-22.41-18.23-29.7-.33-4.43,1.83-9.1,1.86-13.3.02-1.68.17-2.92-1.39-4-2.06,1.65-2.86,4.44-3.78,6.86-2.45,6.42-4.53,15.21-4.54,21.97,0,3.83,1.65,9.66,3.92,12.82,3.76,5.23,21.39,14.22,27.36,12.36,1.94-.6,1.4-3.26.33-4.14ZM269.05,518.92c.18-.16,2.81-3.54,2.88-3.77.97-3.23-4.33-1.2-5.75-1.24-2.53-.07-4.08-2.19-6.66-1.85-.95.95,3.31,6.6,4.14,7.13,1.57,1.02,3.97,1,5.39-.28ZM381.06,528.03c.33-1.59-.85-2.14-1.76-3.11-4.55-4.84-15.13-8.82-21.71-9.34-1.64-.13-10.23-.46-10.23,1.37,1.12,1.75,2.38,1.18,3.97,1.35,8.31.86,14.19,3.03,21.77,6.62,2.68,1.27,4.5,3.83,7.96,3.12ZM192.97,517.38c-.9.18-2.33-.64-2.66.59-.81,3.08-4.93,15.44-1.33,17.15,1.56.74,1.86-2.42,1.98-3.33.66-4.82,1.41-9.6,2-14.41ZM388.87,563.34c3.37-3.41.71-15.88-.04-20.44-10.91-15.23-31.38-22.53-49.92-21.09-20.77,1.61-60.82,25.4-78.78,37.45-1.62,1.09-8.92,5.65-8.57,7.3.47,2.18,7.91,4.75,10.16,4.97,15.98,1.57,34.38-1.24,50.63.02l23.89-2.72,5.78.9c-4.02.29-8.87.38-12.79.97-4.27.64-9.08,2.27-13.37,2.6-3.47.27-7.18-.23-10.68-.03-13.14.74-36.42,3.19-48.32-1.33-1.61-.61-7.92-4.09-8.43-3.98-4.05.88,1.6,5.97,1.32,6.21-2.48.55-4.43-3.01-5.92-3.45-.57-.17-9.43,3.23-9.86,3.64-1.61,1.57-1,4.95-.11,6.83l6.1-.8c1.28,4.92,3.25,8.62,8.44,5.32,2.05.42.28,7.69,6.13,7.18l2.31-2.74c.29,1.72,1.07,5.01,2.65,5.79,1.11.55,7.49,1.19,8.63.66,2.94-1.37,1.22-3.64,3.37-5.55,3.99,3.09.77,7.12,7,6.24,1.56-.22.63-7.07,4.09-6.25.97,3.43.9,6.74,5.07,6.94,2.74.13,2.23-5.24,5.1-5.18,3.73.08,3.02,2.72,4.48,4.43,1.7,2,7.31,2.41,9.63,1.67,2.39-.76,1.32-4.68,3.68-4.33,2.3.34,2.07,2.77,4.2,3.79,2.72,1.31,10.01.2,12.21-1.54,2.17-1.71.24-6.76,4.87-6.74s3.28,6.04,6.89,7.45c.62.24,7.15-.11,8.19-.27,4.33-.68,3.05-6.18,4.18-7.8.41-.58,3.66-2.04,4.67-2.04,6.91-.03,3.89,8.85,9.59,8.71.88-.02,4.33-.72,5.07-1.09,2.02-1.01,2.27-5.06,4.11-5.65,4.86-1.55,3.3,1.18,4.69,3.04,1.97,2.61,7.71,1.29,8.13-2.22,10.63,4.38,12.33-5.09,11.47-13.83-1.06-10.84-8.9-4.26-10.66-5.76l.84-4.38-4.38-1.82c1.17-.13,3.48-.3,4.25-1.07ZM313.64,523.6c-1.67.29-3.78.72-5.34,1.31-9.89,3.72-25.33,10.95-33.24,18.21-1.07.98-2.5,1.85-2.22,3.54,1.64,1.46,10.6-5.2,12.7-6.37,7.65-4.28,17.87-8.65,24.87-13.28,1.23-.81,2.67-2.02,3.24-3.41ZM199.46,557.04c-4.67-4.4-7.24-10.95-8.24-17.05-.7-4.27-3.38-3.77-3.62-.88s3.88,13.1,5.49,15.85c6.88,11.77,29.7,20.81,42.4,15.14,1.91-.85,7.65-5.08,2.26-4.85-3.17.14-5.83,1.53-8.83,1.82-9.93.97-22.2-3.19-29.47-10.04ZM232.94,561.71l4.37-1.35c-.34-1.19-1.07-4.48-2.19-4.82-.65-.19-1.93-.41-2.19.55-.59,2.12-.88,3.53.02,5.62ZM606.75,566.76c-1.68-1.78-2.32-3.72-5.66-3.23-.52,2.78,1.4,5.09,1.72,7.59.34,2.67-1.1,13.57,4.51,9.73.45-.31,3.42-4.63,3.54-5.35.39-2.45-1.25-5.81-2.67-7.81-.42-.59-1.13-.58-1.44-.92ZM601.09,579.49c.05-2.67,1.06-13.81-3.98-12.42-2.64.72-.35,6.94.19,8.67.78,2.51.66,4.46,3.79,3.75ZM614.96,594.87c1.32,1.45,1.47,2.69,3.59,3.98,1.01.62,2.48,1.5,2.94-.3.72-2.81-4.14-7.54-6.45-8.62-1.8-.84-2.85-1.23-4.19.65.01.47,3.43,3.56,4.1,4.29Z"/>
  <path d="M18.2,253.88c1.02-.17,1.73.03,2.64.45,2.86,1.31,11.43,6.87,14.16,8.9,1.25.93,3.49,2.93,3.63,4.41-1.95,8.63-4.34,17.27-6.02,25.95-14.53,75.13-11.76,154.42,10.47,227.77,0,.84.08,1.75-.18,2.55-.43,1.34-9.16,4.91-11.18,5.67-1.98.75-8.77,3.44-10.04,2.5-1.42-1.06-6.84-23.26-7.71-26.91-16.8-71.32-18.71-143.23-4.45-215.14,2.4-12.13,5.71-24.16,8.66-36.15Z"/>
  <path d="M747.48,246.78l9.57,37.01c15.37,77.93,14.9,159.84-3.62,237.35-.18.74-.44,2.43-1.14,2.49-6.89-2.74-14.74-5.26-20.67-9.47-1.04-3.15,3.43-19.34,4.24-23.92,10.15-57.11,12.33-115.15,3.55-172.85l-11.53-58.53c4.24-2.52,8-5.78,12.22-8.36,1.1-.67,6.86-4.35,7.37-3.72Z"/>
  <path d="M706.09,183.24c-3.59,3.28-7.76,6.17-11.39,9.44-1.55,1.4-4.28,3.41-3.89,5.57,1.07,5.85,5.43,1.8,8.31-.26,3.46-2.47,7.83-6.44,11.04-9.36,2.3-2.09,2.92-6.22,7.6-3.05,2.03,5.04,12.49,15.11,9.77,20.41-1.2,2.34-8.68,6.67-11.38,8.14-2,1.09-10.32,4.37-10.87,5.13-1.76,2.48,2.97,6.3,6.98,5.17,1.1-.31,8.56-5.37,10.33-6.53,3.49-2.27,6.25-6.49,11.03-5.76.42.08,3.71,6.26,4.28,7.41.86,1.73,4.06,8.61,4.25,9.98.38,2.77-.53,4.2-1.99,6.37-6.06,2.26-17.4,12.34-23.34,12.64-3.36.17-16.76-4.95-19.04-7.49-4.46-9.66-10.44-18.38-16.33-27.15-2.03-3.02-3.79-6.02-5.97-9.1-1.69-2.39-8.42-9.8-8.73-11.7-.68-4.22,3.35-7.12,6.2-9.77,2.72-2.52,6.56-5.03,9.33-7.53,2.77-2.5,13.61-13.61,16.16-14.08.88-.16,1.24-.1,2.03.3,2.35,1.22,9.97,11.71,10.52,14.42.78,3.9-2.66,4.76-4.89,6.8Z"/>
  <path d="M608.81,72.28c1.92,1.9,2.72,5.2,1.63,7.75-4.59,8.13-8.88,16.49-13.62,24.52-.99,1.68-6.06,10.54-6.94,10.82-2.37.75-4.27-.53-6.25-1.51-1.58-.78-10.56-6.93-10.82-7.85-1.08-3.77,5.32-11.38,7.16-14.76,2.05-3.76,3.66-8.12,5.93-11.86.4-2.62-5.79-4.87-7.59-5.93-.25-.15-.23-.97-.97-1.38-5.98-3.37-6.59-1.98-9.54,3.46-1.76,3.25-8.53,19.6-10.75,20.32-3.67,1.19-15.2-5.98-17.81-9.19l17.66-41.1c4.02-2.58,8.35.98,12.15,3.02,7.27,3.89,15.45,8.68,22.56,12.93,3.9,2.33,14.6,8.19,17.19,10.75Z"/>
  <path d="M289.68,212.63c.13-1.08,1.36-3.34,1.28-4.93,3.19-2.51,7.18-2.01,10.5-2.8,17.35-4.16,18.13-5.09,35.89-.9,1.39.33,8.92.96,9.16,2.53-.64,7.09.71,15.16-.02,22.11-.18,1.71-.57,3.2-1.79,4.48-.78.55-2.98-.23-3.96-.57-5.92-2.07-14.97-4.13-21.37-3.52-2.75.26-4.69.57-3.97,3.57,7.25-.26,15.53.41,22.4,2.89,5.81,2.1,2.65,4.77,2.43,9.07-.23,4.54,2.13,11.71-3.89,11.06-7.39-.8-14.77-2.24-22.23-2.66l-22.67,1.82v-15.53c0-3.65,17.48-4.35,20.45-5.27,3.55-1.11,3.58-3.84-.48-4.11-2.59-.17-11.11,1.37-13.99,2.05-2.75.66-4.91,2.5-7.76,2.45.59-6.9-.81-15,0-21.74ZM322.51,210.41c-5.55-1.43-5,5.47-4.45,9.33.32,2.2,2.91,3.17,3.59,1.68l.86-11.01ZM341.14,212.18h-3.54s0,9.76,0,9.76l2.69-.41.74-1.04.11-8.32ZM300.33,213.07h-4.44c.27,1.87-.91,9.29,1.34,9.76,3.69.76,3.32-7.63,3.1-9.76ZM324.28,239.68l-3.47.07c-.08,1.9-1.23,3.76-1,5.67.34,2.76,4.3,4.13,4.48,2.69v-8.43ZM302.1,240.57c-1.63-.04-3.75-.39-4.32,1.44l-.15,5.99c5.84,4.23,4.42-3.46,4.48-7.43Z"/>
  <path d="M324.27,57.79c-5.8.25-10.78,4.33-16.89,2.29-2.29-1.61-4.04-21.95-6.35-26.48-2.7-5.31-11.94-.17-16.28,1.09-2.06,2.96,4.32,20.5,4.86,25.41s-.37,5.85-4.77,7.5c-4.01,1.5-13.12,4.47-17.1,5.14-.78.13-1.51.33-2.3.05-2.79-.78-5.99-11.84-4.98-14.91,3.46-.2,5.27-1.14,5.25-4.87l-6.98-26.52c.85-1.69,2.2-2.55,3.84-3.32,7.53-3.55,33.18-9.51,41.82-10.53,11.05-1.3,10.78,2.85,13.44,12.15,2.06,7.2,5.36,19.4,6.43,26.4.33,2.14-.12,4.46,0,6.61Z"/>
  <path d="M115.46,152.15c-.19-.26-1.04-.28-1.45-.9-.47-.7-2.64-4.7-2.68-5.18-.33-3.59,5.69-12.02.3-13.56-2.87-.82-14.57-.89-15.3-3.34-.23-.77-.16-1.68.07-2.45.54-1.81,13.55-13.15,15.58-13.71,5.48-1.49,21.74,1.98,24.26.31,4.4-2.9-6.15-12.98-5.02-16.48.97-3.02,10.48-10.39,13.42-10.3,3.77.11,9.78,12.96,11.84,16.28.8,3.61-3.81,8.6-2.13,11.81,2.16,4.11,16.79,2.19,14.28,9.79-.64,1.93-9.52,9.34-11.6,9.7-4.34.73-8.43-.62-12.39-.89-2.33-.16-4.69.09-7.04-.05-1.14-.07-2.35-.88-3.64-.88-10.57-.06,4.61,14.59,3.88,18.14-1.32,2.49-4.18,3.8-6.02,5.5-1.59,1.46-5.65,6.84-8.1,6.21-2.72-.7-6.48-7.45-8.26-9.97Z"/>
  <path d="M151.15,666.29l12.1-19.38c2.23-1.6,3.5-1.85,5.71-.4,2.86,1.89,7.73,5.17,7.19,8.8-.58,3.91-9.43,12.78-10.68,17.59-2.29.91-1.89,1.89-1.76,4.17,8.3,2.08,13.91-18.23,17.41-19.4,3.34-1.12,7.46,1.92,9.68,4.27,3.56,3.77.93,6.25-1.35,10.27-5.77,10.2-15.09,27.08-29.22,20.3-8.84-4.24-25.8-17.34-33.73-23.94-2.62-2.18-5.92-4.6-4.03-8.34,6.09-7.52,11.24-16.84,17.29-24.23.74-.91,3.17-3.53,3.96-4.19.67-.56,2.05-1.54,2.83-1.64,1.68-.23,10.03,6.48,10.03,9.2,0,3.56-12.48,16.84-14.22,21.31-.57,3.17,6.56,7.15,8.79,5.6Z"/>
  <path d="M61.44,530.04l26.86,43.73c.34,4.52-7.97,9.72-11.01,12.87-4.47,4.62-8.51,9.94-12.93,14.57-2.88,3.01-4.97-.2-7.11-2.65-7.25-8.26-17.2-24.14-22.91-33.87-1.35-2.29-7.27-12.38-7.27-14.05,0-1.93,6.59-6.92,8.45-8.4,4.26-3.38,12.7-9.65,17.37-11.91,2.89-1.4,5.68-2.21,8.57-.29ZM55.2,551.21c-1.74.32-9.27,5.58-7.58,8.14,2.98,3.13,10.52,18.23,13.75,19.17.53.15.96.16,1.49,0,1.15-.34,8.11-6.96,6.66-9.05-2.29-2.77-10.67-17.67-12.88-18.28-.52-.14-.93-.07-1.44.02Z"/>
  <path d="M668.85,626.21c1.5,1.65,3.1,3.7,5.36,2.89,1.25-2.07,4.04-3.15,4.02-5.7s-10.18-13.05-12.37-15.97c-2.34-3.12-3.86-4.8-1.66-8.75.5-.89,6.25-6.87,6.97-7.25,1.68-.88,3.77.45,5.06,1.64,1.95,1.8,8.37,10.23,9.92,12.71,1.67,2.66.43,5.65,5.44,4.77.86-5.5-.7-7.65-3.97-11.56-2.29-2.73-11.03-9.76-11.11-12.83-.08-2.7,8.1-10.93,10.93-10.12.85.24,11.27,10.73,12.6,12.31,6.83,8.08,9.56,15.53,5.51,25.95-1.15,2.94-11.45,13.63-14.38,16.67-1.91,2-13.19,13.67-14.37,14.02-1.74.52-7.51.35-9.55.09-4.07-.52-6.78-3.68-9.37-6.6-4.97-5.6-8.87-12.26-14.04-17.72,1.45-3.3,7.98-9.87,11.62-9.21,3.24.58,10.53,11.53,13.38,14.66Z"/>
  <path d="M733.88,530.13c4.55,3.29,12.14,8.8,16.29,12.52,1.17,1.05,3.55,3.31,3.14,4.95-.65,2.57-6.25,11.5-8.09,14.09-1.24,1.75-4.2,6.13-6.18,6.31-2.4.22-8.46-3.69-9.16-5.96-1.29-4.22,4.11-6.34,2.11-10.07-.78-1.46-7.26-6.21-8.94-3.57-2.45,3.84,2.73,15.8,3.8,20.24.87,3.63,2.48,11.42,1.98,14.81-.35,2.33-7.38,12.57-9.24,13.84-2.98,2.04-6.73-1.22-7.41-4.22-.85-3.75,2.77-10.37-1.66-11.65-3.9-1.13-6.73.99-11.55-1.75-2.04-1.16-8.23-6.22-8.06-8.44.18-2.29,4.62-9.22,6.87-10,3.66-1.26,7.04,3.95,10.66,2.29.08-5.31-3.97-9.85-2.48-15.35l14.41-22.84c4.22-2.74,9.91,2.21,13.5,4.81Z"/>
  <path d="M687.48,146.23c.24.29.96.37,1.43.94,2.14,2.63,6.26,6.83,5.21,10.3-.66,2.16-18.1,18.42-20.88,19.06-1.99.46-7.93-.49-10.4-.8-4.41-.55-12.23-1.22-15.19-4.33-1.32-2.98-14.96-13.51-6.91-15.85,8.37-2.44,22.54,5.99,28.6-4.29.68-2.28-3.39-4.82-4.82-6.49-.97-1.13-1.6-2.51-2.62-3.59-6.16-6.56-14.24-11.5-18.95-19.2-.36-3.24,9.28-11.91,11.87-14.48.72-.72.97-1.84,1.55-2.41.43-.41,3.92-3.25,4.16-3.38,1.42-.74,3.03-.72,4.45,0,.59.3,9.01,8.72,9.31,9.31,2.94,5.78-7.67,9.01-6.58,12.73.29,1,12.2,13.02,14.11,15.23s3.79,4.96,5.66,7.23Z"/>
  <path d="M289.68,176.7c2.33-.48,1.53.6,2.25,1.72,2.09,3.27,4.49-1.29,4.86-3.49,1.45-.24.99,2.32,2.22,2.66,2.5.69,2.97-4.03,3.57-5.29.49-1.04,1.86-1.27,2.19-3.13.58-3.31.4-8.33.9-12.4.57-4.55-1.07-5.5,3.57-8.85,2.75-1.98,7.92-2.19,7.06-5.81,2.27-.44,2.08,2.02,3.98,3.57,2.21,1.8,9.47,4.73,10.68,7.06,1.34,2.58-.15,8.76.43,11.99.24,1.32,1.34,1.99,1.58,2.86.74,2.69-.81,5.46,2.4,7.35,2.18-2.04.1-4.36,3.98-3.54l.91,4.44,3.99-1.61c.28,0,2.21,1.9,2.21,2.05v20.41c0,.49-1.49,4.7-2.27,4.86-1.61-.31-3.01-1.17-4.62-1.52-4.25-.91-14.98-3.83-18.4-3.82-4.21.01-13.7,2.72-18.42,3.79-3.55.81-7.55,2.04-11.01,3.23-.72.41-2.06-.97-2.06-1.21v-25.29ZM306.54,166.05c4.99.76,9.81-1.21,14.68-.93,1.78.1,10.08,2.59,9.27-1.28-.87-1.38-1.73-1.19-3.07-1.37-4.92-.66-16.01-2.04-19.98.49-1.27.81-.92,1.81-.9,3.09Z"/>
  <path d="M47.19,184.78c3.63-1.02,13.2,9.39,16.3,11.84,2.31,3.57.03,5.3-.71,8.26-2.21,8.84-3.78,17.78-7.19,26.28,2.23,4.28,13.99,7.74,14,12.52,0,2.18-3.05,7.71-4.22,9.94-1.56,2.97-3.67,6.87-6.04,9.06-1.96.4-14.98-9.54-17.77-11.31-5.64-3.56-11.74-6.34-17.1-10.4-1.61-1.22-6.21-4.6-6.33-6.18-.09-1.14,2.15-5.48,2.84-6.95.78-1.66,5.24-10.26,6.05-10.8,4.14-2.79,9.43,4.89,12.16,5.71,3.08.93,7.11-7.53,6.4-9.96-1.02-3.49-10.01-6.48-9.68-10.75.17-2.17,9.36-16.73,11.28-17.27Z"/>
  <path d="M380.62,5.46l1.22,1.44c.68,6.75,1.48,13.49,1.02,20.31-.43,6.44-1.55,12.25-5.76,17.3-3.98,4.77-9.27,6.74-15.19,7.88-10.16,1.96-20.8,2.02-30.88,4.41-2.82-.57-2.9-12.15-2.18-14.41.88-2.75,5.54-1.8,7.03-2.73,1.76-1.1.19-9.12-.14-11.49-.68-4.76-3.11-11.87-3.22-16.25s5.6-4.5,9.04-4.74c9.47-.65,10.85-.9,11.94,8.55.78,6.75.38,14.07,1.91,20.72,8.99,1.51,7.29-11.07,7.06-17.26-.06-1.48-.81-2.88-.92-4.4-.13-1.86-.4-9.33,2.23-9.33h16.86Z"/>
  <path d="M544.93,687.91c2.39-.52,5.49-.72,6.89,1.62l14.53,29.88c1.03,3.91-3.48,5.23-6.35,6.63-7.42,3.63-17.37,7.36-25.22,10.27-5.64,2.09-11.53,3.52-17.02,6.01-1.14.21-2.44-.52-3.16-1.38-1.44-1.72-5.52-16.76-6.42-20.19s-4.28-14.39-2.49-17.09c1.53-2.3,13.26-5.35,16.45-6.62,6.73-2.69,16.04-7.66,22.79-9.14ZM546.78,716.82c2.74-2.68-1.53-11.13-4.66-12.87-.98-.07-15.18,5.5-16.4,6.43-3.35,2.57,1.02,12.15,3.22,12.73,1.18.31,7.67-2.13,9.4-2.77,1.25-.46,8.11-3.21,8.44-3.53Z"/>
  <path d="M466.09,716.27c.57,1.37,1.41,2.43,1.86,3.9,2.06,6.68,4.65,20.52,5.3,27.52.2,2.12.65,5.23-1.18,6.64-1.47,1.14-17.22,3.74-19.62,3.54-4.72-.39-4.86-8.4-3.85-11.92.65-2.27,5.72-1.05,6.81-2.5,2.02-2.67-.46-17.06-5.93-10.81l-9.27,17.82c-3.09,2-3.85,7.04-7.21,9.17-2.4,1.52-12.92,2.95-14.29.9-3.68-5.54,6.63-14,6.75-17.36.11-2.86-4.64-2.07-5.38-3.72-.96-2.14-3.4-15.59-2.27-17.19.71-.99,6.51-1.99,7.88-1.58,3.96,1.17,3.68,9.55,6.37,8.74,1.83-.55,4.18-9.81,7.32-10.43,8.73-1.8,17.79-3.24,26.7-2.72Z"/>
  <path d="M204.32,52.69l16.89,35.91c.29,1.06.35,2.15.03,3.21-.94,3.1-12.78,8.56-16.27,9.53-1.82-.17-3.18-3.15-4.16-4.78-2.07-3.43-8.34-18.57-10.46-19.7-.46-.25-.85-.43-1.38-.47-3.78-.33-24.35,15.72-29.69,17.43-1.01.42-2.54-.03-3.33-.76-.54-.5-5.43-8.41-5.55-9.1-.45-2.69.17-4.12,2.21-5.75l44.18-25.91c2.39-1.24,5.26-.91,7.54.39Z"/>
  <path d="M601.04,684.23c-5.77-1.73-12.05-2.83-17.69-4.94-2.92-1.09-12.67-4.29-8.67-8.23,3.57-1.15,7.22-4.93,10.92-5.48,6-.9,11.37,2.85,16.9,3.45,9.08.99,1.89-6.63.76-11.42-.31-1.31-.71-2.54-.27-3.9,2.18-2.68,8.32-7.67,11.7-6.7,2.58.74,8.85,13.51,9.32,16.53.73,4.76-5.05,9.39,1.91,12.21,2.39.97,10,1.01,8.81,5.18-.35,1.24-13.64,10.06-15.96,11.59-6.55,4.33-15.04,10.08-21.83,13.66-2.11,1.11-5.4,3.37-7.67,2.72-1.53-.44-6.27-8.37-5.83-9.94.87-3.05,13.67-8.61,16.78-10.79l.82-3.96Z"/>
  <path d="M436.27,54.96c-.48-.48-1.01-2.16-.99-2.89.48-7.57,2.99-15.79,3.43-23.18.06-.94-.3-2.63-.8-3.36-.79-1.15-15.46-2.87-18.23-3.23-2.31-.3-10.23.34-11.01-2.3-.46-1.56.55-11.41,1.21-12.77.29-.59,1.32-1.48,1.95-1.66,4.66.32,9.38,1.23,14.01,1.69,8.45.85,17.12,1.34,25.53,2.86,2.4.43,6.91,1.13,8.92,1.73.92.27,2.91,2.22,3.16,3.1l-7.42,41.1c-1.4,2.16-3.87,1.96-6.24,1.78-1.94-.15-12.73-2.06-13.54-2.87Z"/>
  <path d="M117.04,588.92c1.43,1.28,4.17,2.99,3.91,5.07-.4,3.18-6.13,5.83-3.83,10.35.66,1.3,8.44,8.62,10.18,10.22,3.03,2.78,10.56,7.65,12.48,10.58,2.78,4.22-2.23,7.3-4.46,10-4.73,5.74-11.55,14.53-17.31,18.88-3,2.26-4.11,2.27-7.11,0-4.18-3.17-11.97-9.91-15.55-13.7-3.16-3.34-3.57-5.65,0-8.96,7.11-6.62,11.78,7.26,17.18,5.71,1.43-.41,8.85-8.32,8.49-9.99-.33-1.52-7.49-6.83-9.24-8.51-3.13-3-11.87-10.8-13.77-13.74-4.27-6.62,7.84-14.16,10.66-19.59,4.24-1.91,5.97,1.54,8.38,3.68Z"/>
  <path d="M88.03,135.12c.73-.13,1.39-.11,2.06.24l28.41,27.54c2.46,3.28-.65,7.1-3.28,9.29-1.96.54-3.05-1.64-4.69-2.21-4.9-1.7-7.49,2.57-10.23,2.34-.84-.07-5.19-3.61-6.23-4.5-1.86-1.58-5.56-6.8-7.85-6.12-1.33.39-11.99,13.94-13.89,16.34-1.81,2.28-6.21,10.07-8.46,10.25-2.57.21-10.9-7.13-11.11-9.39-.15-1.64,1.36-4.29,2.31-5.7,6.5-9.7,19.33-25.25,27.44-33.78,1.34-1.41,3.66-3.96,5.53-4.29Z"/>
  <path d="M377.52,760.04c-.84,3.09-13.84,3.62-14.93-.15-.68-2.34-.31-10.21-.2-13.2.07-1.95.89-3.58.95-5.26.11-3.2-.72-18.71.97-19.89,5.12-.05,10.32-.27,15.45-.11,8.58.26,16.15.24,24.84.04,1.27-.03,2.48-.83,3.56-.83,3.85-.02,4.19,3.69,4.78,6.66l.87,33.99c-3.87,1.49-8.38,1.47-12.24,0,.46-2.93-.83-5.72-.99-8.32-.25-4.08,1.29-15.77-2.63-17.78-4.67.23-14.82-2.82-18.65-.87-.38.19-1.77,1.65-1.77,1.78v23.95Z"/>
  <path d="M253.11,695.02c1.01.99,1.34,3.97.93,5.38-4.21,8.81-5.94,19.39-10.04,28.14-.68,1.44-2.68,5.24-4.25,5.17-2.64-.12-11.96-3.62-12.21-6.53-.14-1.64,3.77-11.48,4.68-13.98.9-2.47,4.2-7.2,2.95-9.52-1.37-2.55-18.06-9.02-22.09-11.66-1.07-.7-2.3-1.38-2.21-2.79.1-1.61,3.81-9.26,5.18-9.98l1.3-.39,35.77,16.16Z"/>
  <path d="M498.08,70.14c-1.87,1.32-16.26-2.98-17.72-4.71-.47-.56-.84-1.1-.85-1.86l10.67-40.62c2.55-2.62,6.06-1.17,9.09-.39,2.04.53,9.3,2.77,10.04,4.2.22.42.44.79.37,1.28l-11.6,42.1Z"/>
  <path d="M331.48,728.65c-1.56,9.38-1.31,19-3.74,28.19-3.33.44-13.54.07-14.11-3.89-.3-2.06-.15-5.8,0-8.01.22-3.36,3.44-16,.93-17.75-3.48-2.42-7.2-.44-4.95-8.46.61-.91,1.71-.8,2.67-.88,7.63-.6,16.14.42,23.87.16,2.88.93,2.32,6.9,1.05,8.79-.79,1.17-4.32.99-5.71,1.84Z"/>
  <path d="M194.57,709.73c-2.73,3.49-13.73-3.15-15.6-6.45l17.5-34.46c2.63-3.86,14.25,3.22,14.26,6.04l-16.16,34.88Z"/>
  <path d="M345.29,718.05c2.47-.71,11.68-.68,12.59,2.19l-1.16,39.41c-1.13,1.69-11.73,1-13.82-.48-2.41-1.7-.04-11.18.06-14.17.28-7.97-.3-16.01-.04-23.99.14-1.27,1.15-2.6,2.37-2.96Z"/>
  <path d="M163.94,99.73c.39-.42,4.08-3.21,4.77-3.64,2.74-1.7,6.97-3.89,10.07-2.35,1.71.85,9.24,13.19,9.63,15.27.64,3.48-4.39,6.15-7.04,7.73-5.31,3.18-5.67,4.97-10.07-.45-1.11-1.36-8.2-12.92-8.31-13.83-.1-.79.41-2.15.95-2.73Z"/>
  <path d="M470.36,17.07c2.11-.64,13.83,2.04,14.36,4.91.12.62-1.65,8.71-2.04,10.13-.44,1.63-2.16,7.55-3.66,7.85-3.43-.74-11.46-1.87-12.62-5.82-.86-2.93,1.05-16.19,3.96-17.07Z"/>
  <path d="M401.03,8.13c3.5.56,3.28,7.4,3.12,10.22-.14,2.52-1.01,6.63-1.73,8.9-3.32.77-13.02,1.04-14.71-2.25-.97-1.9-.43-16.87.46-16.87,3.99.44,9.05-.61,12.86,0Z"/>
  <path d="M620.32,77.48c8-2.39,15.75,8.17,10.08,14.51-2.94,3.29-13.38,6.92-16.88,3.53-4.32-4.19,5.63-4.26,6.19-6.26.18-2.78-2.88-3.93-2.66-7,.11-1.53,1.76-4.33,3.27-4.78Z"/>
  <path d="M647.85,95.34c3.14,3.15,2.96,9.76-.65,12.56-1.88,1.46-6.93,3.1-9.31,3.19-3.18.11-8.87-1.49-6.56-5.31l6.08-1c.58-3.76-3.3-5.62-1.27-9.71,2.26-4.55,8.84-2.59,11.7.27Z"/>
  <path d="M560.9,678.15c1.45-.33,3.61-.45,5.01-.03,3.23.97,6.91,10.95,4.16,13.63-.87.84-6.15,2.27-7.38,2.06-5.96-1.01-10.76-13.62-1.79-15.66Z"/>
  <path d="M624.17,640.7c-8.72,2.06-12.08-8.14-4.21-11.74,8.71-3.99,12.14,8.66,9.08,15.29-2.75,5.96-6,1.34-4.87-3.55Z"/>
  <path d="M269.07,700.35c2.72,2.7.5,10.9-1.71,13.84-8.94,1.52-13.16-6.9-8.79-14.36,1.48-2.53,8.63-1.35,10.51.51Z"/>
  <path d="M92.42,579.65c1.63-.19,4.72,2.48,5.64,3.81,5.4,7.74-9.32,18.49-12.94,6.71-1.27-4.15,3.12-10.04,7.29-10.51Z"/>
  <path d="M634.52,616.01c1.31-.4,2.62-.31,3.85.3.67.33,4.97,5.72,5.16,6.36,1.07,3.52.02,8.14-3.98,9.02-2.45.54-8.41-4.98-9-7.57-.71-3.1.88-7.17,3.97-8.12Z"/>
  <path d="M572.7,587.48l-5.84,1.7c-11.38,1.09-23.11,3.6-34.54,3.68-2.28.02-3.66-1.78-5.27-1.77-5.82.04-10.99.25-16.88-.08-4.9-.28-9.76-.7-14.65-.87-.21-1.54,2.03-.86,3.1-.88,13.02-.26,26.06.23,39.08-.04l4.24.66,2.8-.62c9.4.27,18.53-2.62,27.97-1.76Z"/>
  <path d="M472.45,524.49c-.08,1.51-2.5.98-3.9,1.86-4.95,3.13-1.23,10.89,3.04,4.81,2.08-2.96.86-5.25,5.75-6.67l.44,1.32c-3.37,3.85-8.14,8.67-8.87,13.76-2.8.82-1.2-2.15-2.59-3.17-4.6-.26-6.88-.38-10.63-3.13-.99-4.05,3.12-3.12,5.57-4.46,3.48-1.89,5.39-7.24,11.2-4.32Z"/>
  <path d="M445.18,415.13c.65.74,3.09,1.69,4.18,2.08-2.59,7.75,5.61,2.94,9.78,2.59l-8.43,4.42c-2.08,1.78-3.61,3.21-3.1,6.22l-4.61-9.56c-1.94-1.95-3.41.77-4.26.3-1.92-1.08-2.52-5.8-2.67-8.02-.06-.82,1.04-.4,1.77-.45.3,1.76,1.21,3.22,1.73,4.96.44,1.47.19,2.1,1.83.82,1.24-.96,1.25-5.79,1.77-7.55,1.69.17.82,2.85,2,4.21Z"/>
  <path d="M429.86,406.49c.58,2.62-1.64,1.44-3.15,2.6-3.67,2.81,1.47,7.85,4.92,3.61.7,5.75-8.1,5.95-10.2,1.78-2.47-4.91,3.73-10.19,8.43-7.98Z"/>
  <path d="M524.79,595.46h-23.95c-.07-1.88-.41-1.69,1.32-1.78,3.66-.18,7.91-.17,11.59-.04,1.99.07,3.63.93,5.3.99,2.25.09,4.75-2.15,5.75.82Z"/>
  <path d="M468.9,586.59c.11,1.35.36,2.09-1.35,1.79-1.92-.34-4.36-3.02-6.34-3.9l-3.84-5c.56-.58,9.2,8.04,11.53,7.1Z"/>
  <path d="M277.26,576.83c-.18,1.71-3.57,1.76-4.84,1.82-4.67-.55-9.52-.55-14.16-1-.8-.08-4.19-.48-4.06-1.7,1.67-.85,4.23.88,4.88.88h18.19Z"/>
  <path d="M239.04,389.71l-3.48-.08v-4.44s3.9.97,3.9.97c4.23-7.49,12.71-2.96,12.11,4.78-.4,5.22-12.95,6.04-12.53-1.24ZM248.78,386.18c-1.28-.23-2.83-1.8-3.91-.12-3.92,6.09,5.83,10.16,3.91.12Z"/>
  <path d="M250.45,409.35c.7.7,2.04,4.43,2.05,5.57.03,4.14-4.83,5.82-8.39,3.86-8.7-4.81,2.01-13.77,6.33-9.43ZM246.72,411.87c-2.39.67-2.44,7.48,2.53,6.08,2.39-.67,2.44-7.48-2.53-6.08Z"/>
  <path d="M474.22,309.78l.39-10.7c2.44-1.23,9.79-2.1,10.27,1.37,1.47,10.67-1.24,9.68-10.66,9.33Z"/>
</svg>
